<?xml version="1.0" encoding="UTF-8" standalone="no"?>
<svg
   xmlns:dc="http://purl.org/dc/elements/1.1/"
   xmlns:cc="http://web.resource.org/cc/"
   xmlns:rdf="http://www.w3.org/1999/02/22-rdf-syntax-ns#"
   xmlns:svg="http://www.w3.org/2000/svg"
   xmlns="http://www.w3.org/2000/svg"
   xmlns:xlink="http://www.w3.org/1999/xlink"
   xmlns:sodipodi="http://sodipodi.sourceforge.net/DTD/sodipodi-0.dtd"
   xmlns:inkscape="http://www.inkscape.org/namespaces/inkscape"
   version="1.0"
   width="48"
   height="48"
   id="svg1800"
   sodipodi:version="0.32"
   inkscape:version="0.46dev+devel"
   sodipodi:docname="Emblem-phone2.svg"
   inkscape:output_extension="org.inkscape.output.svg.inkscape">
  <metadata
     id="metadata3608">
    <rdf:RDF>
      <cc:Work
         rdf:about="">
        <dc:format>image/svg+xml</dc:format>
        <dc:type
           rdf:resource="http://purl.org/dc/dcmitype/StillImage" />
      </cc:Work>
    </rdf:RDF>
  </metadata>
  <sodipodi:namedview
     inkscape:window-height="510"
     inkscape:window-width="800"
     inkscape:pageshadow="2"
     inkscape:pageopacity="0.0"
     guidetolerance="10.0"
     gridtolerance="10.0"
     objecttolerance="10.0"
     borderopacity="1.0"
     bordercolor="#666666"
     pagecolor="#ffffff"
     id="base"
     inkscape:zoom="2.9978381"
     inkscape:cx="63.182794"
     inkscape:cy="18.727312"
     inkscape:window-x="-4"
     inkscape:window-y="-4"
     inkscape:current-layer="svg1800" />
  <defs
     id="defs3">
    <linearGradient
       id="linearGradient3101">
      <stop
         style="stop-color:#000000;stop-opacity:1"
         offset="0"
         id="stop3103" />
      <stop
         style="stop-color:#000000;stop-opacity:0"
         offset="1"
         id="stop3105" />
    </linearGradient>
    <radialGradient
       cx="17.3125"
       cy="25.53125"
       r="9.6875"
       fx="17.3125"
       fy="25.53125"
       id="radialGradient3107"
       xlink:href="#linearGradient3101"
       gradientUnits="userSpaceOnUse"
       gradientTransform="matrix(1,0,0,0.351613,0,16.55413)" />
    <radialGradient
       inkscape:collect="always"
       xlink:href="#linearGradient3101"
       id="radialGradient3694"
       gradientUnits="userSpaceOnUse"
       gradientTransform="matrix(2.182912,0,0,0.7675402,-13.50372,21.78608)"
       cx="17.3125"
       cy="25.53125"
       fx="17.3125"
       fy="25.53125"
       r="9.6875" />
    <linearGradient
       gradientTransform="matrix(0.97619,0,0,0.406377,0.571429,24.97647)"
       gradientUnits="userSpaceOnUse"
       y2="36.615528"
       x2="24"
       y1="42.25"
       x1="24"
       id="linearGradient2294"
       xlink:href="#linearGradient2288"
       inkscape:collect="always" />
    <radialGradient
       r="15.644737"
       fy="36.421127"
       fx="24.837126"
       cy="36.421127"
       cx="24.837126"
       gradientTransform="matrix(1,0,0,0.536723,-31.380397,22.431169)"
       gradientUnits="userSpaceOnUse"
       id="radialGradient2494"
       xlink:href="#linearGradient8662"
       inkscape:collect="always" />
    <radialGradient
       r="15.644737"
       fy="36.421127"
       fx="24.837126"
       cy="36.421127"
       cx="24.837126"
       gradientTransform="matrix(1,0,0,0.536723,3.750475e-14,16.87306)"
       gradientUnits="userSpaceOnUse"
       id="radialGradient2490"
       xlink:href="#linearGradient8662"
       inkscape:collect="always" />
    <linearGradient
       y2="10"
       x2="26.673967"
       y1="27.5"
       x1="25"
       gradientTransform="translate(-47.133702,-1.0237772)"
       gradientUnits="userSpaceOnUse"
       id="linearGradient2481"
       xlink:href="#linearGradient2233"
       inkscape:collect="always" />
    <linearGradient
       y2="72.780548"
       x2="31.856716"
       y1="16.114628"
       x1="19.891792"
       gradientTransform="translate(-46.133702,-2.3777195e-2)"
       gradientUnits="userSpaceOnUse"
       id="linearGradient2479"
       xlink:href="#linearGradient2834"
       inkscape:collect="always" />
    <linearGradient
       y2="-1.0712531"
       x2="66.021606"
       y1="35.023777"
       x1="70.133705"
       gradientUnits="userSpaceOnUse"
       id="linearGradient2477"
       xlink:href="#linearGradient2243"
       inkscape:collect="always"
       gradientTransform="translate(-46.133702,2.9762228)" />
    <linearGradient
       y2="-1.0712531"
       x2="66.021606"
       y1="33.438889"
       x1="86.496902"
       gradientUnits="userSpaceOnUse"
       id="linearGradient2475"
       xlink:href="#linearGradient3682"
       inkscape:collect="always"
       gradientTransform="translate(-46.133702,2.9762228)" />
    <linearGradient
       id="linearGradient8662"
       inkscape:collect="always">
      <stop
         id="stop8664"
         offset="0"
         style="stop-color:#000000;stop-opacity:1;" />
      <stop
         id="stop8666"
         offset="1"
         style="stop-color:#000000;stop-opacity:0;" />
    </linearGradient>
    <linearGradient
       id="linearGradient2834">
      <stop
         id="stop2836"
         offset="0"
         style="stop-color:#ffffff;stop-opacity:1;" />
      <stop
         id="stop2838"
         offset="1.0000000"
         style="stop-color:#b3b3b3;stop-opacity:0.0000000;" />
    </linearGradient>
    <linearGradient
       id="linearGradient3682">
      <stop
         id="stop3684"
         offset="0"
         style="stop-color:#497fc6;stop-opacity:1;" />
      <stop
         id="stop3686"
         offset="1"
         style="stop-color:#90b3d9;stop-opacity:1;" />
    </linearGradient>
    <linearGradient
       id="linearGradient2233"
       inkscape:collect="always">
      <stop
         id="stop2235"
         offset="0"
         style="stop-color:#ffffff;stop-opacity:1;" />
      <stop
         id="stop2237"
         offset="1"
         style="stop-color:#ffffff;stop-opacity:0;" />
    </linearGradient>
    <linearGradient
       id="linearGradient2243">
      <stop
         style="stop-color:#2a5387;stop-opacity:1"
         offset="0"
         id="stop2245" />
      <stop
         style="stop-color:#3465a4;stop-opacity:1;"
         offset="1"
         id="stop2247" />
    </linearGradient>
    <linearGradient
       id="linearGradient2288"
       inkscape:collect="always">
      <stop
         id="stop2290"
         offset="0"
         style="stop-color:#000000;stop-opacity:1;" />
      <stop
         id="stop2292"
         offset="1"
         style="stop-color:#000000;stop-opacity:0;" />
    </linearGradient>
  </defs>
  <path
     d="M 45.43163,41.38611 C 45.43163,45.49265 35.96382,48.82166 24.28467,48.82166 C 12.60553,48.82166 3.13771,45.49265 3.13771,41.38611 C 3.13771,37.27957 12.60553,33.95057 24.28467,33.95057 C 35.96382,33.95057 45.43163,37.27957 45.43163,41.38611 z"
     style="opacity:0.40909089;color:#000000;fill:url(#radialGradient3694);fill-opacity:1;fill-rule:nonzero;stroke:none;stroke-width:1.10533953;stroke-linecap:butt;stroke-linejoin:miter;marker:none;marker-start:none;marker-mid:none;marker-end:none;stroke-miterlimit:4;stroke-dasharray:none;stroke-dashoffset:0;stroke-opacity:1;visibility:visible;display:inline;overflow:visible"
     id="path2258" />
  <path
     d="M 45.08492,21.40757 C 45.08492,32.88961 35.77688,42.19764 24.29484,42.19764 C 12.8128,42.19764 3.50476,32.88961 3.50476,21.40757 C 3.50476,9.92554 12.8128,0.61751 24.29484,0.61751 C 35.77688,0.61751 45.08492,9.92554 45.08492,21.40757 L 45.08492,21.40757 z"
     style="fill:#00aad4;fill-opacity:1;fill-rule:nonzero;stroke:#111535;stroke-width:0.94500303;stroke-linecap:round;stroke-linejoin:round;stroke-miterlimit:4;stroke-dasharray:none;stroke-dashoffset:0;stroke-opacity:1"
     id="path2260" />
  <path
     d="M 44.55207,21.31626 C 44.55207,32.42704 35.545,41.4341 24.43422,41.4341 C 13.32344,41.4341 4.31638,32.42704 4.31638,21.31626 C 4.31638,10.20548 13.32344,1.19842 24.43422,1.19842 C 35.545,1.19842 44.55207,10.20548 44.55207,21.31626 L 44.55207,21.31626 z"
     style="fill:#497fc6;fill-opacity:1;fill-rule:nonzero;stroke:#3faff2;stroke-width:0.91444718999999997;stroke-linecap:round;stroke-linejoin:round;stroke-miterlimit:4;stroke-dasharray:none;stroke-dashoffset:0;stroke-opacity:1"
     id="path2262" />
  <path
     d="M 43.67316,20.48054 C 43.67316,31.31116 37.62099,16.17434 24.99842,20.86693 C 12.2759,25.59667 4.43178,31.31116 4.43178,20.48054 C 4.43178,9.64992 13.22185,0.85986 24.05247,0.85986 C 34.88309,0.85986 43.67316,9.64992 43.67316,20.48054 z"
     style="fill:#80e5ff;fill-opacity:0.21568628;fill-rule:nonzero;stroke:none;stroke-width:1;stroke-linecap:round;stroke-linejoin:round;stroke-miterlimit:4;stroke-dashoffset:0;stroke-opacity:1"
     id="path2268" />
  <g
     transform="matrix(0.2034155,0,0,0.2034155,1.55823,-4.15123)"
     id="g2470"
     inkscape:label="Layer 1"
     style="fill:#ffffff">
    <path
       id="flowRoot2168"
       d="M 112.21094,66.939596 L 112.84375,66.939596 C 141.10926,67.736575 161.26549,71.767821 173.3125,79.033346 C 186.01546,86.720931 192.36702,94.549048 192.36719,102.51772 C 190.67952,109.68966 187.42171,113.27559 182.59375,113.27553 C 182.31234,113.27559 182.00765,113.25215 181.67969,113.20522 L 153.0625,103.36147 C 150.24987,102.51779 148.84362,101.0881 148.84375,99.072409 C 148.84362,98.181857 149.12487,97.150608 149.6875,95.978659 C 152.87487,92.650613 154.46862,90.236553 154.46875,88.736471 C 154.46862,87.65843 153.67174,87.049056 152.07813,86.908346 L 73.046875,86.908346 C 71.453076,87.049056 70.656202,87.65843 70.65625,88.736471 C 70.656202,90.236553 72.249951,92.650613 75.4375,95.978659 C 75.999947,97.103733 76.281197,98.134982 76.28125,99.072409 C 76.281197,101.0881 74.85151,102.51779 71.992188,103.36147 L 43.375,113.20522 C 43.046855,113.25215 42.742168,113.27559 42.460938,113.27553 C 37.679673,113.27559 34.421863,109.68966 32.6875,102.51772 C 32.68749,94.549048 39.062484,86.720931 51.8125,79.033346 C 63.812459,71.861571 83.945251,67.830325 112.21094,66.939596 L 112.21094,66.939596 z M 129.15625,95.978659 L 129.15625,90.705221 L 139.28125,90.705221 L 139.28125,101.39272 C 139.28113,104.90841 144.92957,108.00216 156.22656,110.67397 C 167.05454,115.12715 172.4686,124.05683 172.46875,137.46303 L 172.46875,171.91616 L 52.585938,171.91616 L 52.585938,137.46303 C 52.585908,124.05683 58.023402,115.12715 68.898438,110.67397 C 80.14838,108.00216 85.773375,104.90841 85.773438,101.39272 L 85.773438,90.705221 L 95.96875,90.705221 L 95.96875,95.978659 L 129.15625,95.978659 z M 83.945313,134.4396 C 83.945251,142.26775 86.710874,148.92399 92.242188,154.40835 C 97.773363,159.89273 104.40617,162.63492 112.14063,162.63491 C 120.01553,162.63492 126.69521,159.89273 132.17969,154.40835 C 137.66395,148.92399 140.40613,142.26775 140.40625,134.4396 C 140.40613,126.65839 137.67567,120.00215 132.21484,114.47085 C 126.7538,108.93966 120.0624,106.17404 112.14063,106.17397 C 104.31242,106.17404 97.656175,108.93966 92.171875,114.47085 C 86.687436,120.00215 83.945251,126.65839 83.945313,134.4396 L 83.945313,134.4396 z M 127.96094,134.36928 C 127.96083,138.72869 126.42568,142.45525 123.35547,145.54897 C 120.28506,148.64274 116.54678,150.18962 112.14063,150.1896 C 107.78117,150.18962 104.06633,148.64274 100.99609,145.54897 C 97.925706,142.45525 96.390551,138.72869 96.390625,134.36928 C 96.390551,129.9162 97.925706,126.15449 100.99609,123.08413 C 104.06633,120.01387 107.78117,118.47871 112.14063,118.47866 C 116.54678,118.47871 120.28506,120.01387 123.35547,123.08413 C 126.42568,126.15449 127.96083,129.9162 127.96094,134.36928 L 127.96094,134.36928 z M 116.78125,112.08022 C 116.78116,113.11153 116.40616,114.02559 115.65625,114.82241 C 114.90616,115.61934 113.96866,116.01778 112.84375,116.01772 C 111.76554,116.01778 110.83976,115.61934 110.06641,114.82241 C 109.29288,114.02559 108.90616,113.11153 108.90625,112.08022 C 108.90616,110.95528 109.29288,109.99435 110.06641,109.19741 C 110.83976,108.4006 111.76554,108.00216 112.84375,108.0021 C 113.96866,108.00216 114.90616,108.4006 115.65625,109.19741 C 116.40616,109.99435 116.78116,110.95528 116.78125,112.08022 L 116.78125,112.08022 z M 116.78125,156.30678 C 116.78116,157.4318 116.40616,158.38102 115.65625,159.15444 C 114.90616,159.92789 113.96866,160.31461 112.84375,160.3146 C 111.76554,160.31461 110.83976,159.92789 110.06641,159.15444 C 109.29288,158.38102 108.90616,157.4318 108.90625,156.30678 C 108.90616,155.22868 109.29288,154.29118 110.06641,153.49428 C 110.83976,152.69743 111.76554,152.29899 112.84375,152.29897 C 113.96866,152.29899 114.90616,152.69743 115.65625,153.49428 C 116.40616,154.29118 116.78116,155.22868 116.78125,156.30678 L 116.78125,156.30678 z M 101.10156,112.43178 C 101.75773,112.52559 102.39055,113.01778 103,113.90835 C 103.60929,114.79903 103.84367,115.7834 103.70313,116.86147 C 103.56242,117.93965 103.04679,118.7834 102.15625,119.39272 C 101.26555,120.0959 100.28117,120.36543 99.203125,120.20131 C 98.124925,120.0373 97.257738,119.50996 96.601563,118.61928 C 95.945239,117.68184 95.710865,116.68575 95.898438,115.631 C 96.085864,114.57637 96.624926,113.69747 97.515625,112.99428 C 98.218675,112.52559 98.968674,112.29122 99.765625,112.29116 C 99.999923,112.29122 100.44523,112.33809 101.10156,112.43178 L 101.10156,112.43178 z M 129.01563,149.69741 C 129.71864,150.58805 129.98817,151.57243 129.82422,152.65053 C 129.66005,153.72868 129.10927,154.6193 128.17188,155.32241 C 127.46865,155.79117 126.71865,156.02555 125.92188,156.02553 C 125.6874,156.02555 125.2538,155.97867 124.62109,155.88491 C 123.98818,155.79117 123.32021,155.27555 122.61719,154.33803 C 122.00771,153.44743 121.78506,152.47477 121.94922,151.42006 C 122.11318,150.3654 122.64053,149.50993 123.53125,148.85366 C 124.42177,148.24431 125.40615,148.00993 126.48438,148.15053 C 127.5624,148.29118 128.40614,148.80681 129.01563,149.69741 L 129.01563,149.69741 z M 92.945313,123.54116 C 94.070241,123.91621 94.867115,124.58417 95.335938,125.54506 C 95.804615,126.50605 95.874927,127.50214 95.546875,128.53335 C 95.218678,129.56464 94.562428,130.32636 93.578125,130.8185 C 92.59368,131.31073 91.585869,131.4162 90.554688,131.13491 C 89.523371,130.80682 88.796809,130.24433 88.375,129.44741 C 87.95306,128.65058 87.742123,127.94745 87.742188,127.33803 C 87.742123,126.9162 87.812435,126.49433 87.953125,126.07241 C 88.32806,125.04121 88.996028,124.27949 89.957031,123.78725 C 90.917901,123.29511 91.913993,123.21308 92.945313,123.54116 L 92.945313,123.54116 z M 132.14453,137.46303 C 133.10536,136.99432 134.10145,136.92401 135.13281,137.2521 C 136.16395,137.58026 136.87879,138.14275 137.27734,138.9396 C 137.67567,139.7365 137.87488,140.43963 137.875,141.04897 C 137.87488,141.424 137.80457,141.82244 137.66406,142.24428 C 137.28895,143.27556 136.62098,144.03728 135.66016,144.52944 C 134.69911,145.02165 133.70301,145.08025 132.67188,144.70522 C 131.64052,144.37712 130.8788,143.73259 130.38672,142.77163 C 129.89442,141.81072 129.81239,140.79119 130.14063,139.71303 C 130.51552,138.68182 131.18349,137.93182 132.14453,137.46303 L 132.14453,137.46303 z M 88.375,138.9396 C 88.796809,138.14275 89.523371,137.58026 90.554688,137.2521 C 91.585869,136.92401 92.59368,136.99432 93.578125,137.46303 C 94.562428,137.93182 95.218678,138.68182 95.546875,139.71303 C 95.874927,140.83806 95.804615,141.88103 95.335938,142.84194 C 94.867115,143.80291 94.117116,144.47087 93.085938,144.84585 C 91.960868,145.12712 90.917901,145.02165 89.957031,144.52944 C 88.996028,144.03728 88.32806,143.27556 87.953125,142.24428 C 87.812435,141.82244 87.742123,141.424 87.742188,141.04897 C 87.742123,140.43963 87.95306,139.7365 88.375,138.9396 L 88.375,138.9396 z M 132.67188,123.54116 C 133.70301,123.21308 134.69911,123.29511 135.66016,123.78725 C 136.62098,124.27949 137.28895,125.04121 137.66406,126.07241 C 137.80457,126.49433 137.87488,126.89277 137.875,127.26772 C 137.87488,127.87714 137.67567,128.56855 137.27734,129.34194 C 136.87879,130.11542 136.16395,130.68964 135.13281,131.0646 C 134.10145,131.39276 133.08192,131.31073 132.07422,130.8185 C 131.0663,130.32636 130.42177,129.56464 130.14063,128.53335 C 129.81239,127.50214 129.89442,126.50605 130.38672,125.54506 C 130.8788,124.58417 131.64052,123.91621 132.67188,123.54116 L 132.67188,123.54116 z M 96.601563,149.69741 C 97.257738,148.85368 98.124925,148.34978 99.203125,148.18569 C 100.28117,148.02165 101.26555,148.24431 102.15625,148.85366 C 103.04679,149.50993 103.58586,150.38884 103.77344,151.49038 C 103.96086,152.59196 103.70304,153.54118 103,154.33803 C 102.39055,155.27555 101.75773,155.79117 101.10156,155.88491 C 100.44523,155.97867 99.999923,156.02555 99.765625,156.02553 C 98.968674,156.02555 98.218675,155.79117 97.515625,155.32241 C 96.624926,154.6193 96.12102,153.93961 96.003906,153.28335 C 95.886646,152.62712 95.828052,152.1818 95.828125,151.94741 C 95.828052,151.15055 96.085864,150.40056 96.601563,149.69741 L 96.601563,149.69741 z M 122.61719,113.90835 C 123.32021,113.01778 123.98818,112.52559 124.62109,112.43178 C 125.2538,112.33809 125.6874,112.29122 125.92188,112.29116 C 126.71865,112.29122 127.46865,112.52559 128.17188,112.99428 C 129.10927,113.69747 129.62489,114.36543 129.71875,114.99819 C 129.81239,115.63106 129.85927,116.04121 129.85938,116.22866 C 129.85927,117.07246 129.57802,117.86934 129.01563,118.61928 C 128.40614,119.50996 127.78505,120.00215 127.15234,120.09585 C 126.51943,120.18965 126.08583,120.23652 125.85156,120.23647 C 125.00771,120.23652 124.23427,119.95527 123.53125,119.39272 C 122.64053,118.7834 122.14834,118.15059 122.05469,117.49428 C 121.96084,116.83809 121.91396,116.39278 121.91406,116.15835 C 121.91396,115.36153 122.14834,114.61153 122.61719,113.90835 L 122.61719,113.90835 z"
       style="font-size:144px;fill:#ffffff;font-family:'DejaVu Sans'" />
  </g>
</svg>
